<?xml version="1.0" encoding="UTF-8" standalone="no"?>
<svg
   xmlns:dc="http://purl.org/dc/elements/1.1/"
   xmlns:cc="http://creativecommons.org/ns#"
   xmlns:rdf="http://www.w3.org/1999/02/22-rdf-syntax-ns#"
   xmlns:svg="http://www.w3.org/2000/svg"
   xmlns="http://www.w3.org/2000/svg"
   xmlns:sodipodi="http://sodipodi.sourceforge.net/DTD/sodipodi-0.dtd"
   xmlns:inkscape="http://www.inkscape.org/namespaces/inkscape"
   version="1.1"
   viewBox="0 0 32 32"
   enable-background="new 0 0 32 32"
   width="512px"
   height="512px"
   id="svg2"
   inkscape:version="0.91 r13725"
   sodipodi:docname="icon-close-white.svg">
  <metadata
     id="metadata10">
    <rdf:RDF>
      <cc:Work
         rdf:about="">
        <dc:format>image/svg+xml</dc:format>
        <dc:type
           rdf:resource="http://purl.org/dc/dcmitype/StillImage" />
        <dc:title></dc:title>
      </cc:Work>
    </rdf:RDF>
  </metadata>
  <defs
     id="defs8" />
  <sodipodi:namedview
     pagecolor="#ffffff"
     bordercolor="#666666"
     borderopacity="1"
     objecttolerance="10"
     gridtolerance="10"
     guidetolerance="10"
     inkscape:pageopacity="0"
     inkscape:pageshadow="2"
     inkscape:window-width="1278"
     inkscape:window-height="830"
     id="namedview6"
     showgrid="false"
     inkscape:zoom="0.4609375"
     inkscape:cx="82.440678"
     inkscape:cy="256"
     inkscape:window-x="0"
     inkscape:window-y="23"
     inkscape:window-maximized="0"
     inkscape:current-layer="svg2" />
  <path
     d="m32,16c0-8.8-7.2-16-16-16s-16,7.2-16,16 7.2,16 16,16c5.9,0 8.8,0 10.5-1.3 1.5-1.1 2.2-2.7 4.3-8.9v-0.1c0.8-1.8 1.2-3.7 1.2-5.7l0,0zm-22.3-12.5c1.9-1 4-1.5 6.3-1.5 2.7,0 5.2,0.8 7.4,2.1 1,0.6 1.1,2 0.3,2.8l-5.9,5.9c-1,1-2.6,1-3.6,0l-4.6-4.6c-1.6-1.6-1.4-3.9 0.1-4.7zm-7.7,12.5c0-2.5 0.7-4.9 1.8-6.9 0.7-1.2 2.7-1.1 4,0.1l5,5c1,1 1,2.6 0,3.6l-5,5c-1.3,1.3-3.6,1-4.4-0.7-0.9-1.9-1.4-3.9-1.4-6.1zm17.6,13c-1.4,0.9-2.3,1-3.7,1-2.4,0-4.7-0.7-6.7-1.8-1.3-0.7-1.5-2.5-0.4-3.5l5.4-5.4c1-1 2.7-1 3.7,0l.1,.1c2.7,2.7 4.1,8 1.6,9.6zm10.3-11.9c-0.1,0.6-0.2,1.1-0.4,1.7-0.2,0.9-0.5,1.6-0.8,2.2-1.6,3.1-6.1,0.1-9.9-3.6-0.8-0.8-0.8-2.1 0-2.9l6.1-6.1c0.9-0.9 2.4-0.7 3.1,0.4 1.3,2.1 2,4.5 2,7.2 0,0.4 0,0.8-0.1,1.1z"
     fill="#727475"
     id="path4"
     style="fill:#ffffff;fill-opacity:1" />
</svg>
