<?xml version="1.0" encoding="UTF-8" standalone="no"?>
<svg
   xmlns:dc="http://purl.org/dc/elements/1.1/"
   xmlns:cc="http://creativecommons.org/ns#"
   xmlns:rdf="http://www.w3.org/1999/02/22-rdf-syntax-ns#"
   xmlns:svg="http://www.w3.org/2000/svg"
   xmlns="http://www.w3.org/2000/svg"
   xmlns:sodipodi="http://sodipodi.sourceforge.net/DTD/sodipodi-0.dtd"
   xmlns:inkscape="http://www.inkscape.org/namespaces/inkscape"
   version="1.1"
   viewBox="0 0 31.8 31.8"
   enable-background="new 0 0 31.8 31.8"
   width="512px"
   height="512px"
   id="svg2"
   inkscape:version="0.91 r13725"
   sodipodi:docname="settings.svg.svg">
  <metadata
     id="metadata14">
    <rdf:RDF>
      <cc:Work
         rdf:about="">
        <dc:format>image/svg+xml</dc:format>
        <dc:type
           rdf:resource="http://purl.org/dc/dcmitype/StillImage" />
      </cc:Work>
    </rdf:RDF>
  </metadata>
  <defs
     id="defs12" />
  <sodipodi:namedview
     pagecolor="#ffffff"
     bordercolor="#666666"
     borderopacity="1"
     objecttolerance="10"
     gridtolerance="10"
     guidetolerance="10"
     inkscape:pageopacity="0"
     inkscape:pageshadow="2"
     inkscape:window-width="830"
     inkscape:window-height="480"
     id="namedview10"
     showgrid="false"
     inkscape:zoom="0.4609375"
     inkscape:cx="256"
     inkscape:cy="256"
     inkscape:window-x="0"
     inkscape:window-y="0"
     inkscape:window-maximized="0"
     inkscape:current-layer="svg2" />
  <g
     id="g4"
     style="fill:#ffffff;fill-opacity:1">
    <circle
       cx="15.7"
       cy="15.8"
       r="2"
       fill="#727475"
       id="circle6"
       style="fill:#ffffff;fill-opacity:1" />
    <path
       d="m29.8,13.9c-1.2,0-2.3-0.7-2.6-1.8-0.2-0.5-0.4-1-0.6-1.5-0.5-1.1-0.3-2.3 0.6-3.2 0.8-0.8 0.8-2 0-2.8-0.8-0.8-2-0.8-2.8,0-0.8,0.8-2.1,1.1-3.2,0.6-0.5-0.2-1-0.4-1.5-0.6-1.1-0.4-1.8-1.5-1.8-2.6s-0.9-2-2-2-2,0.9-2,2c0,1.2-0.7,2.3-1.8,2.6-0.5,0.2-1,0.4-1.5,0.6-1.1,0.5-2.3,0.3-3.2-0.6-0.8-0.8-2-0.8-2.8,0-0.8,0.8-0.8,2 0,2.8 0.8,0.8 1.1,2.1 0.6,3.2-0.2,0.5-0.4,1-0.6,1.5-0.4,1.1-1.5,1.8-2.6,1.8s-2,0.9-2,2 0.9,2 2,2c1.2,0 2.3,0.7 2.6,1.8 0.2,0.5 0.4,1 0.6,1.5 0.5,1.1 0.3,2.3-0.6,3.2-0.8,0.8-0.8,2 0,2.8 0.8,0.8 2,0.8 2.8,0s2.1-1.1 3.2-0.6c0.5,0.2 1,0.4 1.5,0.6 1.1,0.4 1.8,1.5 1.8,2.6s0.9,2 2,2 2-0.9 2-2c0-1.2 0.7-2.3 1.8-2.6 0.5-0.2 1-0.4 1.5-0.6 1.1-0.5 2.3-0.3 3.2,0.6 0.8,0.8 2,0.8 2.8,0s0.8-2 0-2.8-1.1-2.1-0.6-3.2c0.2-0.5 0.4-1 0.6-1.5 0.4-1.1 1.5-1.8 2.6-1.8s2-0.9 2-2-0.9-2-2-2zm-21.1,9.1c-1.8-1.8-2.9-4.3-2.9-7.1 0-5.5 4.5-10 10-10 4.7,0 8.7,3.3 9.7,7.7 1.5,6.2-12.3,13.9-16.8,9.4z"
       fill="#727475"
       id="path8"
       style="fill:#ffffff;fill-opacity:1" />
  </g>
</svg>
